<svg id="Calque_1" data-name="Calque 1" xmlns="http://www.w3.org/2000/svg" viewBox="0 0 2758.92 501.29"><defs><style>.cls-1{fill:#12875c;}.cls-2{fill:#3f3325;}</style></defs><title>Taawoniya</title><path class="cls-1" d="M578.22,1252.92H172.29a48,48,0,0,0-47.88,47.89v405.51a48,48,0,0,0,47.88,47.89H367.54v-21.34c-30.23-49.66-132.27-79.37-133.33-79.66a7.72,7.72,0,0,1-3.72-12.45c11.63-13.57,16.07-25.77,13.19-36.24-5.23-19-32.66-28.5-32.94-28.59a7.72,7.72,0,0,1-2-13.64c13.53-9.48,29.25-23.71,27.24-37.67-2.49-17.18-30.22-30.07-40.7-33.58a7.72,7.72,0,0,1-1.83-13.74c24.92-16.6,36.93-33,35.73-48.63-2.07-27-42-45.8-42.41-46a7.72,7.72,0,0,1,2.84-14.72c139.63-7.36,178.23-87.32,178.6-88.13a7.74,7.74,0,0,1,7-4.49h0a7.72,7.72,0,0,1,7,4.52c.37.78,39,80.74,178.6,88.09a7.72,7.72,0,0,1,2.84,14.71c-.41.19-40.34,19-42.42,46-1.2,15.66,10.82,32,35.74,48.63a7.72,7.72,0,0,1-1.83,13.74c-10.48,3.52-38.21,16.41-40.7,33.58-2,14,13.7,28.2,27.24,37.67a7.72,7.72,0,0,1-2,13.64c-.28.09-27.71,9.55-32.95,28.6-2.88,10.47,1.56,22.65,13.2,36.23a7.71,7.71,0,0,1-3.73,12.44c-1,.31-103.1,30-133.32,79.68v21.32H578.23a48,48,0,0,0,47.88-47.88v-405.5A48,48,0,0,0,578.22,1252.92ZM349.84,1370.23l25.41,25.41,25.42-25.42a7.71,7.71,0,0,1,10.91,10.91L383,1409.74v58.54l49.39-37a7.71,7.71,0,1,1,9.25,12.34l-58.65,44v50.17l49.39-37a7.72,7.72,0,1,1,9.25,12.35L383,1557v50.17l49.39-37a7.71,7.71,0,1,1,9.25,12.34l-58.64,44v81.39c33.49-35.39,93.77-58,118.34-66.16-9.81-14.45-13-28.33-9.35-41.36,4.64-16.73,19.47-27.55,30.42-33.47-17.51-14.8-25.29-29.73-23.15-44.51,2.92-20,23.75-33.49,37.91-40.44-22.19-17.5-32.69-35.79-31.22-54.5,1.56-20.19,16.91-35.94,30.42-46-100.87-11.68-145.41-60.31-161.09-83.22-15.67,22.91-60.21,71.53-161.09,83.21,13.51,10.1,28.86,25.84,30.43,46,1.46,18.71-9,37-31.22,54.51,14.16,7,35,20.41,37.9,40.43,2.15,14.78-5.63,29.72-23.14,44.51,10.94,5.93,25.78,16.75,30.41,33.48,3.62,13,.47,26.9-9.35,41.36,24.58,8.13,84.85,30.77,118.34,66.16v-81.39l-58.64-44a7.72,7.72,0,0,1,9.25-12.35l49.39,37V1557l-58.64-44a7.72,7.72,0,0,1,9.25-12.35l49.39,37v-50.17l-58.64-44a7.71,7.71,0,1,1,9.25-12.34l49.39,37v-58.53l-28.6-28.61a7.71,7.71,0,1,1,10.91-10.91Z" transform="translate(-124.41 -1252.92)"/><path class="cls-2" d="M825.28,1613.26c0,11.94-6.89,17.46-13.78,24.37-13.8,13.78-6,23.44,12.87,23.44H901.6c19.3,0,27.12-9.19,12.88-23.44-6.92-6.91-13.81-12.43-13.81-24.83V1357.19h29c27.59,0,40.92,40.92,53.8,61.61a18.3,18.3,0,0,0,15.17,8.73c6.89,0,12.41-4.61,11-16.08l-6.89-60.69c-.93-7.35-7.82-11.5-17-11.5h-245c-9.2,0-16.09,4.15-17,11.5l-6.89,60.69c-1.37,11.47,4.15,16.08,11,16.08A18.31,18.31,0,0,0,743,1418.8c12.88-20.69,26.21-61.61,53.8-61.61h28.49Z" transform="translate(-124.41 -1252.92)"/><path class="cls-2" d="M1136.9,1610.05c-9.19,8.26-20.22,14.24-30.79,14.24-14.71,0-23.44-12.87-23.44-32.19,0-32.63,25.74-52.39,54.23-61.12Zm0-98.86c-54.23,4.61-130.56,21.16-130.56,87.36,0,39.53,28.05,67.57,69,67.57,25.75,0,48.28-11,64.83-26.65,5.51,17.93,20.23,28,43.2,28,12,0,49.65-4.14,49.65-17.48,0-3.21-4.14-8.29-11.5-12.87-4.58-2.77-9.19-9.66-9.19-21.6v-95.63c0-69-51.49-94.71-101.14-94.71-48.26,0-96.07,20.23-96.07,57.93,0,21.14,16.09,38.16,40.46,38.16,23.44,0,40.45-16.09,40.45-36.32,0-13.8-8.75-26.67-22.53-32.65a43.79,43.79,0,0,1,23.44-6.43c26.68,0,40,21.14,40,47.81Z" transform="translate(-124.41 -1252.92)"/><path class="cls-2" d="M1373.05,1610.05c-9.19,8.26-20.23,14.24-30.8,14.24-14.71,0-23.44-12.87-23.44-32.19,0-32.63,25.75-52.39,54.24-61.12Zm0-98.86c-54.24,4.61-130.56,21.16-130.56,87.36,0,39.53,28,67.57,69,67.57,25.74,0,48.27-11,64.82-26.65,5.52,17.93,20.23,28,43.21,28,12,0,49.65-4.14,49.65-17.48,0-3.21-4.14-8.29-11.5-12.87-4.59-2.77-9.2-9.66-9.2-21.6v-95.63c0-69-51.48-94.71-101.13-94.71-48.26,0-96.07,20.23-96.07,57.93,0,21.14,16.08,38.16,40.45,38.16,23.45,0,40.46-16.09,40.46-36.32,0-13.8-8.75-26.67-22.53-32.65a43.77,43.77,0,0,1,23.44-6.43c26.67,0,40,21.14,40,47.81Z" transform="translate(-124.41 -1252.92)"/><path class="cls-2" d="M1546.64,1474c-5.52-12-5.52-19.32-.91-23,14.25-11,9.66-19.76-8.28-19.76H1457c-15.62,0-21.14,11-6.89,19.3,6.43,3.68,12.87,12.43,19.3,27.58l77.7,178.84c3.21,6.91,8.28,10.13,13.33,10.13s10.57-3.22,13.34-10.13l48.26-110.8,47.81,110.8c3.23,6.91,8.28,10.13,13.34,10.13s10.56-3.22,13.33-10.13l77.7-178.84c6.43-15.15,12.87-23.9,19.3-27.58,13.34-7.8,10.12-19.3-5.52-19.3h-29.42c-18.85,0-21.6,8.27-8.26,19.76,4.58,3.68,3.67,11-1.4,23l-39.52,90.55-40-90.55c-5.51-12-5.51-19.32-.93-23,14.25-11,9.66-19.76-8.26-19.76h-80.47c-15.62,0-21.14,11-6.89,19.3,6.45,3.68,12.87,12.43,19.32,27.58l16.09,36.78-21.61,49.65Z" transform="translate(-124.41 -1252.92)"/><path class="cls-2" d="M1928.17,1644.06c-47.35,0-72.16-103-72.16-146.65,0-22.53,6.43-51,29.42-51,49.19,0,70.79,104.81,70.79,146.64C1956.22,1615.1,1950.7,1644.06,1928.17,1644.06Zm-22.07,21.62c73.56,0,118.16-54.26,118.16-123.23,0-70.32-44.6-117.22-118.16-117.22s-117.68,46.9-117.68,117.22C1788.42,1611.42,1832.55,1665.68,1906.1,1665.68Z" transform="translate(-124.41 -1252.92)"/><path class="cls-2" d="M2125.14,1468.9c11-7.8,23.91-13.78,35.4-13.78,23.45,0,29.43,27.11,29.43,50.11v108.5c0,9.19-2.77,14.71-10.13,21.6-15.62,13.78-15.15,25.74,9.66,25.74h75.86c24.82,0,25.28-12,9.66-25.74-7.35-6.89-10.12-12.41-10.12-21.16V1508.91c0-60.24-34.94-86-76.77-86a115.51,115.51,0,0,0-63,18.86v-3.21c0-9.2-5-14.25-12.87-14.25a24.1,24.1,0,0,0-10.57,2.75l-60.22,28c-13.8,6.42-15.64,12.4-2.3,22.53,7.82,5.51,11,17.46,11,30.33v105.75c0,9.19-2.77,14.71-10.12,21.6-15.62,13.78-15.16,25.74,9.65,25.74h75.87c24.81,0,25.27-12,9.65-25.74-7.35-6.89-10.12-12.41-10.12-21.16Z" transform="translate(-124.41 -1252.92)"/><path class="cls-2" d="M2396.77,1661.07c24.81,0,25.28-12,9.66-25.74-7.36-6.89-10.13-12.41-10.13-21.16V1440.4c0-9.19-5.05-14.24-12.87-14.24a24.14,24.14,0,0,0-10.57,2.75l-60.68,28c-13.8,6.9-16.08,12.88-2.3,22.54,7.35,6,11.49,17.46,11.49,30.33v104.35c0,8.75-2.77,14.27-10.12,21.16-15.62,13.78-15.15,25.74,9.66,25.74Zm-39.55-247.34a41.89,41.89,0,0,0,42.3-42.29c0-23.45-18.84-40.9-42.3-40.9s-42.29,17.45-42.29,40.9A41.89,41.89,0,0,0,2357.22,1413.73Z" transform="translate(-124.41 -1252.92)"/><path class="cls-2" d="M2524.4,1663.84c-5.52,13.78-11,18.84-17,18.84-4.14,0-15.17-9.64-32.17-9.64-21.62,0-37.7,16.08-37.7,35.85,0,21.6,18.85,37.24,44.13,37.24,30.35,0,42.76-23,55.63-52l95.16-216.08c9.19-20.67,12.87-23.9,19.32-27.58,14.24-7.8,9.19-19.3-6.45-19.3h-28.49c-19.78,0-20.69,8.27-8.29,19.76,4.61,2.77,4.15,11-1.37,23l-40.46,90.55L2527.61,1474c-5.52-12.43-6-19.32-1.37-23,14.24-11,9.66-19.76-8.29-19.76h-80.44c-15.62,0-21.14,11-6.9,19.3,6.43,3.68,12.88,12.43,19.3,27.58l77.7,177.47Z" transform="translate(-124.41 -1252.92)"/><path class="cls-2" d="M2787.25,1610.05c-9.2,8.26-20.23,14.24-30.8,14.24-14.71,0-23.44-12.87-23.44-32.19,0-32.63,25.74-52.39,54.24-61.12Zm0-98.86c-54.24,4.61-130.57,21.16-130.57,87.36,0,39.53,28.05,67.57,69,67.57,25.75,0,48.28-11,64.83-26.65,5.52,17.93,20.23,28,43.2,28,12,0,49.65-4.14,49.65-17.48,0-3.21-4.14-8.29-11.5-12.87-4.58-2.77-9.19-9.66-9.19-21.6v-95.63c0-69-51.49-94.71-101.14-94.71-48.25,0-96.07,20.23-96.07,57.93,0,21.14,16.09,38.16,40.46,38.16,23.44,0,40.46-16.09,40.46-36.32,0-13.8-8.75-26.67-22.54-32.65a43.8,43.8,0,0,1,23.45-6.43c26.67,0,40,21.14,40,47.81Z" transform="translate(-124.41 -1252.92)"/></svg>